<?xml version="1.0" encoding="UTF-8"?>
<svg width="514px" height="515px" viewBox="0 0 514 515" version="1.1" xmlns="http://www.w3.org/2000/svg" xmlns:xlink="http://www.w3.org/1999/xlink">
    <title>logo</title>
    <defs>
        <circle id="path-1" cx="199.5" cy="200.111932" r="199.5"></circle>
    </defs>
    <g id="页面-1" stroke="none" stroke-width="1" fill="none" fill-rule="evenodd">
        <g id="画板" transform="translate(-4471.000000, -5409.000000)">
            <g id="饼状图" transform="translate(4471.000000, 5409.000000)">
                <g id="路径-302" transform="translate(16.000000, 37.388068)">
                    <mask id="mask-2" fill="white">
                        <use xlink:href="#path-1"></use>
                    </mask>
                    <use id="蒙版" fill="#FF6A6A" xlink:href="#path-1"></use>
                    <polygon fill="#A0FFE7" mask="url(#mask-2)" points="116.5 20.111932 199.5 204.611932 321 20.111932 218.75 -30 116.5 0.611932031"></polygon>
                    <polygon id="路径-303" fill="#FFDF80" mask="url(#mask-2)" points="3.3789808 264.361932 199.5 204.611932 110.992746 8.01662544 35.6158637 45.8556337 -28.8449222 169.611932"></polygon>
                </g>
                <path d="M491,194.5 C491.828427,194.5 492.5,195.171573 492.5,196 C492.5,312.532082 398.032082,407 281.5,407 C164.967918,407 70.5,312.532082 70.5,196 C70.5,195.171573 71.1715729,194.5 72,194.5 C72.8284271,194.5 73.5,195.171573 73.5,196 C73.5,310.875228 166.624772,404 281.5,404 C396.375228,404 489.5,310.875228 489.5,196 C489.5,195.171573 490.171573,194.5 491,194.5 Z" id="路径" fill="#000000" fill-rule="nonzero" transform="translate(281.500000, 300.750000) rotate(-38.000000) translate(-281.500000, -300.750000) "></path>
                <path d="M107.165342,53.8681478 C21.9619422,100.444299 -10.1107457,181.778342 10.964177,297.494606 C11.1282987,298.395751 12.0547032,298.940662 12.9220609,298.646234 L199.807774,235.207116 C200.670758,234.914172 201.075257,233.925687 200.665198,233.111801 C170.443446,173.127514 139.960219,113.587592 109.215516,54.4920358 C108.827605,53.746418 107.902833,53.4650007 107.165342,53.8681478 Z M107.264,57.243 L112.698394,67.6993483 C139.308382,118.956818 165.722039,170.548044 191.939365,222.473027 L197.209,232.921 L13.61,295.244 L13.9156268,296.957071 C-6.73245703,183.584454 23.9903361,104.016302 106.100403,57.8881031 L107.264,57.243 Z" id="路径-3" fill="#000000" fill-rule="nonzero" transform="translate(102.761276, 176.205269) rotate(2.000000) translate(-102.761276, -176.205269) "></path>
                <path d="M326.053273,70.1791206 C326.506632,69.4857542 327.436237,69.2911899 328.129603,69.744549 C328.782184,70.17124 328.992918,71.0197956 328.637484,71.6962133 L328.564175,71.8208794 L216.755451,242.820879 C216.302092,243.514246 215.372487,243.70881 214.679121,243.255451 C214.02654,242.82876 213.815806,241.980204 214.17124,241.303787 L214.244549,241.179121 L326.053273,70.1791206 Z" id="路径-4" fill="#000000" fill-rule="nonzero"></path>
                <path d="M106,26 C110.418278,26 114,29.581722 114,34 C114,38.418278 110.418278,42 106,42 C101.581722,42 98,38.418278 98,34 C98,29.581722 101.581722,26 106,26 Z M106,29 C103.238576,29 101,31.2385763 101,34 C101,36.7614237 103.238576,39 106,39 C108.761424,39 111,36.7614237 111,34 C111,31.2385763 108.761424,29 106,29 Z" id="椭圆形" fill="#000000" fill-rule="nonzero"></path>
                <path d="M119,18 C121.761424,18 124,20.2385763 124,23 C124,25.7614237 121.761424,28 119,28 C116.238576,28 114,25.7614237 114,23 C114,20.2385763 116.238576,18 119,18 Z M119,21 C117.895431,21 117,21.8954305 117,23 C117,24.1045695 117.895431,25 119,25 C120.104569,25 121,24.1045695 121,23 C121,21.8954305 120.104569,21 119,21 Z" id="椭圆形备份-30" fill="#000000" fill-rule="nonzero"></path>
                <path d="M44,52 C45.1045695,52 46,52.8954305 46,54 L46,57 L49,57 C50.1045695,57 51,57.8954305 51,59 C51,60.1045695 50.1045695,61 49,61 L46,61 L46,64 C46,65.1045695 45.1045695,66 44,66 C42.8954305,66 42,65.1045695 42,64 L42,61 L39,61 C37.8954305,61 37,60.1045695 37,59 C37,57.8954305 37.8954305,57 39,57 L42,57 L42,54 C42,52.8954305 42.8954305,52 44,52 Z" id="形状结合" fill="#000000"></path>
                <path d="M21,80 C21.5522847,80 22,80.4477153 22,81 L22,83 L24,83 C24.5522847,83 25,83.4477153 25,84 C25,84.5522847 24.5522847,85 24,85 L22,85 L22,87 C22,87.5522847 21.5522847,88 21,88 C20.4477153,88 20,87.5522847 20,87 L19.999,85 L18,85 C17.4477153,85 17,84.5522847 17,84 C17,83.4477153 17.4477153,83 18,83 L20,83 L20,81 C20,80.4477153 20.4477153,80 21,80 Z" id="形状结合备份-7" fill="#000000"></path>
                <g id="编组-28备份" transform="translate(331.000000, 0.000000)">
                    <circle id="椭圆形" fill="#FF6A6A" cx="19" cy="18" r="13"></circle>
                    <circle id="椭圆形备份-26" fill="#A0FFE7" cx="13" cy="13" r="13"></circle>
                    <path d="M23,5.5 C13.8873016,5.5 6.5,12.8873016 6.5,22 C6.5,31.1126984 13.8873016,38.5 23,38.5 C32.1126984,38.5 39.5,31.1126984 39.5,22 C39.5,12.8873016 32.1126984,5.5 23,5.5 Z M23,8.5 C30.4558441,8.5 36.5,14.5441559 36.5,22 C36.5,29.4558441 30.4558441,35.5 23,35.5 C15.5441559,35.5 9.5,29.4558441 9.5,22 C9.5,14.5441559 15.5441559,8.5 23,8.5 Z" id="椭圆形" fill="#000000" fill-rule="nonzero"></path>
                </g>
            </g>
        </g>
    </g>
</svg>
